<?xml version="1.0" encoding="utf-8"?>
<!-- Generator: Adobe Illustrator 21.0.2, SVG Export Plug-In . SVG Version: 6.00 Build 0)  -->
<!DOCTYPE svg PUBLIC "-//W3C//DTD SVG 1.1//EN" "http://www.w3.org/Graphics/SVG/1.1/DTD/svg11.dtd" [
	<!ENTITY st0 "fill:#25A9E0;">
	<!ENTITY st1 "fill:#EE4036;">
]>
<svg version="1.1" id="Layer_1" xmlns="http://www.w3.org/2000/svg" xmlns:xlink="http://www.w3.org/1999/xlink" x="0px" y="0px"
	 width="144.1px" height="483.6px" viewBox="0 0 144.1 483.6" style="enable-background:new 0 0 144.1 483.6;" xml:space="preserve"
	>
<g>
	<polygon style="&st0;" points="62.5,3.4 64.3,4.4 65.1,6.4 92.7,76.6 93.2,77.6 93.2,78.8 93.3,231.3 93.3,231.7 93.3,232.1 
		69.8,423.5 69.5,425.4 68.2,426.9 62.3,425.8 57.9,422 80.9,230.6 80.9,230.2 81,80.4 81,79.9 54.1,10.7 55.9,6.7 	"/>
	<path style="&st0;" d="M42.1,214.4c-3.4,6.2-6.5,12-10,18.2l-0.1,0.2l9.7,16.1l0.1,0.2l21.5-0.8c7.4-0.3,14.7-0.5,22.1-0.7h0.7
		l0.6,0.4l11.8,9l11.7,9.1l0.8,0.7v1.1l-0.2,27.9l-0.3,27v0.5c1.5,10.3,2.9,20.6,4.4,30.9s2.9,20.6,4.3,30.9l1.1,7.7
		c0.4,2.6,0.7,5.2,1.1,7.7l2.5,15.4c1.6,10.3,3.3,20.5,4.8,30.8l0.1,0.5l-0.2,0.4l-4.8,9l-4.9,9l-4.9,9c-1.6,3-3.3,6-5,8.9
		c1.4-3.1,2.7-6.3,4.1-9.4l4.2-9.4l4.3-9.3l4.1-8.9v-0.2c-2-10.2-3.7-19.7-5.7-29.9l-2.9-15.3c-0.5-2.6-0.8-5.1-1.2-7.7l-1.2-7.7
		c-1.6-10.3-3.1-20.6-4.6-30.9s-3.1-20.6-4.5-30.9v-0.2v-0.2l0.5-27.9l0.6-26.8l-0.3-0.3L96,260.1l-10.8-8.7l-0.4-0.2
		c-7.4,0-13.9,0.1-21.3,0.1H40.6l-0.3-0.6L30.7,233l-0.2-0.4l0.2-0.3C34.5,226.4,38.3,220.4,42.1,214.4z"/>
	<path style="&st0;" d="M18.8,229.4c0.8,1.4,1.4,2.9,2.1,4.4s1.2,3,1.8,4.5s1.1,3,1.6,4.5s0.7,2.2,1.2,3.8h0.2
		c1.4,0.2,1.8,0.3,3.1,0.6s2.8,0.5,4.1,0.8c1.4,0.3,2.8,0.6,4.1,1s2.7,0.7,4.1,1.2c-1.4,0-2.8,0-4.3-0.1s-2.8-0.1-4.2-0.3
		s-2.8-0.2-4.2-0.4c-1.4-0.2-2.8-0.4-4.2-0.5l-0.7-0.1l-0.3-0.8c-0.5-1.5-1-3.1-1.4-4.6s-0.9-3.1-1.3-4.6s-0.8-3.1-1.1-4.7
		S19,231,18.8,229.4z"/>
	<path style="&st0;" d="M1.3,254.4c2.4,0.4,4.8,1,7.1,1.6s4.7,1.2,7,1.9s4.6,1.4,6.9,2.2s3,0.9,5.2,1.8h0.3c0.3-2.4,0.6-3.1,1-5.4
		s1-4.7,1.6-7c0.1,2.4,0,4.8-0.1,7.2c-0.1,2.4-0.3,4.8-0.5,7.1l-0.1,1.3l-1.4-0.4c-2.3-0.7-4.6-1.4-6.9-2.2s-4.6-1.5-6.8-2.4
		s-4.5-1.7-6.8-2.6S3.4,255.5,1.3,254.4z"/>
	<path style="&st0;" d="M29.6,281.9c0.4-1.9,1-3.8,1.5-5.6s1.1-3.7,1.7-5.5c1.2-3.7,2.5-7.3,3.9-10.9l0.2-0.4l0.3-0.2
		c1.5-1,2.9-1.9,4.4-2.9s3-1.9,4.5-2.7c3-1.8,6.1-3.5,9.3-5c-2.6,2.4-5.4,4.5-8.2,6.6c-1.4,1.1-2.8,2.1-4.3,3.1s-2.3,1.6-3.7,2.6
		l-0.4,0.5c-1.4,3.6-2.5,6.5-4.1,10.1c-0.8,1.8-1.6,3.5-2.4,5.3C31.4,278.5,30.6,280.2,29.6,281.9z"/>
	<path style="&st0;" d="M53.8,271.9c-1.2-1-2.3-2.2-3.3-3.4c-1-1.2-1.9-2.5-2.7-3.8s-1.6-2.7-2.3-4.1s-1.3-2.9-1.7-4.5
		c1.2,1,2.3,2.2,3.3,3.4c1,1.2,1.9,2.5,2.7,3.8s1.6,2.7,2.3,4.1S53.4,270.3,53.8,271.9z"/>
	<polygon style="&st1;" points="78.4,0 80.3,1 81.1,3 108.7,73.2 109.1,74.2 109.1,75.4 109.3,228 109.3,228.4 109.3,228.8 
		83.3,430.1 83,432.1 81.6,433.5 76.2,433.5 71.4,428.6 96.7,228.8 96.8,228 97,77.2 97,76.6 70.1,7.3 72.5,3.4 	"/>
	<path style="&st1;" d="M10.6,454.2l-2.7-9.5l-2.7-9.5l-5.2-19V416v-0.2l1.8-23.4l2-23.5L6,345.5c0.7-7.8,1.5-15.6,2.2-23.4l0.1-0.8
		l0.6-0.6l14.4-15l14.5-14.9c4.8-5,9.6-9.9,14.5-14.9l14.6-14.8l0.4-0.4l0.5-0.1l15.8-4.6l15.9-4.6h0.2h0.1l19.1-2.1l0.2-0.5
		l7.2-16.1l0.2-0.3l0.3-8.9l0.3-8.9l0.3,8.9l0.3,8.9v0.1l-0.1,0.1l-7.1,18.2l-0.2,0.6l-0.7,0.1l-19.6,3.1l-0.2,0.1l-15.2,4.9
		l-14.7,4.7l-0.4,0.1l-13.9,14.7c-4.8,5-9.6,10-14.4,15l-14.4,15l-13.5,14l-0.2,0.3c-0.8,7.8-1.5,14.7-2.4,22.5L8,369.4l-2.7,23.4
		l-2.8,23.1l0.1,0.3L6.7,435l2,9.6L10.6,454.2z"/>
	<path style="&st1;" d="M144.1,259c-1.4-0.4-2.7-1-4-1.6s-2.6-1.2-3.8-1.9s-2.5-1.3-3.7-2.1s-2.1-1.3-3.3-2H129l-2.1-0.1l-2.6-0.2
		c-1.7-0.2-3.4-0.5-5.1-0.8c1.7-0.4,3.4-0.7,5.1-0.8l2.6-0.2l2.6-0.1h0.3l0.3,0.2c1.2,0.7,2.4,1.4,3.6,2.1s2.4,1.5,3.5,2.3
		s2.3,1.6,3.4,2.5C142,257.1,143.1,258,144.1,259z"/>
	<path style="&st1;" d="M127.1,273.2c-1.7-1.5-3.3-3.1-4.8-4.9c-1.5-1.7-2.9-3.5-4.2-5.3c-1.3-1.8-2.6-3.7-3.8-5.6
		c-1.2-1.9-2.3-3.9-3.2-6c1.7,1.5,3.3,3.1,4.8,4.9c1.5,1.7,2.9,3.5,4.2,5.3s2.6,3.7,3.8,5.6C125.1,269.1,126.2,271.1,127.1,273.2z"
		/>
	<path style="&st1;" d="M111.2,233.5c1,0.8,2,1.6,2.9,2.5c1,0.8,1.9,1.7,2.8,2.6s1.8,1.8,2.7,2.7s1.4,1.4,2.3,2.3h0.2
		c3.8-0.3,7-0.4,10.8-0.4c3.8,0,7.6,0.1,11.4,0.5c-3.7,0.7-7.5,1.3-11.3,1.6c-3.8,0.4-7.6,0.6-11.4,0.7H121l-0.4-0.4
		c-0.8-0.9-1.7-1.9-2.5-2.9s-1.6-2-2.4-3s-1.6-2-2.3-3.1S111.8,234.6,111.2,233.5z"/>
</g>
</svg>
