<?xml version="1.0" encoding="utf-8"?>
<!-- Generator: Adobe Illustrator 21.0.2, SVG Export Plug-In . SVG Version: 6.00 Build 0)  -->
<!DOCTYPE svg PUBLIC "-//W3C//DTD SVG 1.1//EN" "http://www.w3.org/Graphics/SVG/1.1/DTD/svg11.dtd" [
	<!ENTITY st0 "fill:#25A9E0;">
	<!ENTITY st1 "fill:#EE4036;">
]>
<svg version="1.1" id="Layer_1" xmlns="http://www.w3.org/2000/svg" xmlns:xlink="http://www.w3.org/1999/xlink" x="0px" y="0px"
	 width="50.3px" height="275px" viewBox="0 0 50.3 275" style="enable-background:new 0 0 50.3 275;" xml:space="preserve">
<g>
	<path style="&st0;" d="M42.2,25.4v1.3l-1,0.7l-9.6,6.5l-0.4,0.3l-9.5,81c-0.2,1.7-0.4,3.4-0.6,5.1l-0.4,5.2l-0.9,10.3l-1.7,20.6
		l-3.5,41.2v-0.1l3.7,48.9v0.1L29.8,275l-12-28.3l0,0l0,0l-4.6-49.1v-0.1l2.7-41.3l1.3-20.6l0.7-10.3l0.3-5.2
		c0.1-1.7,0.3-3.4,0.5-5.2l8-82.3l0.1-1l0.9-0.6l10.6-9.5h3.2L42.2,25.4z"/>
	<path style="&st0;" d="M15.1,0.6C16,5.5,17,6.4,17.8,11.4s1.8,9.9,2.5,14.8S22,36,22.7,40.9s1.5,9.8,2.2,14.8
		c-1.4-4.8-2.8-9.6-4.1-14.4s-2.6-9.6-3.9-14.5s-2.5-9.7-3.7-14.5S10.8,6.7,9.6,1.8L15.1,0.6z"/>
	<polygon style="&st0;" points="24.2,202.9 45.3,121.1 45.4,120.5 22.2,70.5 26.8,68.5 49.1,119.8 49.3,120.4 49.2,121 25.6,203.2 
		25.6,203.4 29.9,257.2 24.2,203.1 	"/>
	<path style="&st0;" d="M13.4,23c-0.7,3.6-1.4,7.3-2.2,11L6.7,56v0.2c-0.3,7.3-0.7,14.2-1,21.4S4.8,92.2,4.4,99.5S3.5,114,3,121.3
		l-1.6,21.4v0.2c0.4,2.3,0.8,4.5,1.1,6.8l1,6.8c0.7,4.5,1.4,9.1,2,13.6c-1-4.5-1.9-9-2.8-13.5l-1.4-6.7c-0.5-2.2-0.9-4.5-1.3-6.8
		v-0.2l0.9-21.8c0.3-7.3,0.7-14.6,1.1-21.8s0.9-14.5,1.3-21.8S4.2,63,4.7,55.7v-0.1v-0.1L10,33.7c0.9-3.6,1.8-7.3,2.7-10.9
		s1.8-7.3,2.8-10.9C14.9,15.6,14.2,19.4,13.4,23z"/>
	<path style="&st1;" d="M42.3,0l8,0.3l-0.8,14.3l-0.1,2l-1.7,0.9L25.8,29.1l-4.5,37.4L19,86.2L17.8,96l-0.6,4.9
		c-0.2,1.6-0.4,3.3-0.5,4.9L14,145.2l-2.7,39.4v-0.1l1.7,55v0.1l5.7,27.1L12,239.8v-0.1l-3.3-55.1v-0.1l1.7-39.5l1.7-39.5
		c0-1.7,0.3-3.3,0.4-4.9l0.5-4.9l0.9-9.8L15.7,66l3.8-39.3l0.2-1.7l1.6-0.9l21.4-12L42.3,0z"/>
	<polygon style="&st1;" points="44.2,14.2 49.3,66.3 49.3,66.6 49.3,66.8 36.9,132.5 36.9,132.8 36,195.9 35.2,132.3 35.2,132.3 
		35.2,132.2 45.8,66.4 45.7,66.2 39.2,14.8 	"/>
</g>
</svg>
