<?xml version="1.0" encoding="utf-8"?>
<!-- Generator: Adobe Illustrator 21.0.2, SVG Export Plug-In . SVG Version: 6.00 Build 0)  -->
<!DOCTYPE svg PUBLIC "-//W3C//DTD SVG 1.1//EN" "http://www.w3.org/Graphics/SVG/1.1/DTD/svg11.dtd" [
	<!ENTITY st0 "fill:#25A9E0;">
	<!ENTITY st1 "fill:#EE4036;">
]>
<svg version="1.1" id="Layer_1" xmlns="http://www.w3.org/2000/svg" xmlns:xlink="http://www.w3.org/1999/xlink" x="0px" y="0px"
	 width="50.3px" height="275px" viewBox="0 0 50.3 275" style="enable-background:new 0 0 50.3 275;" xml:space="preserve">
<g>
	<path style="&st0;" d="M8.8,21.5H12L22.6,31l0.9,0.6l0.1,1l8,82.3c0.2,1.8,0.4,3.5,0.5,5.2l0.3,5.2l0.7,10.3l1.3,20.6l2.7,41.3v0.1
		l-4.6,49.1l0,0l0,0l-12,28.3L32,246.5v-0.1l3.7-48.9v0.1l-3.5-41.2l-1.7-20.6l-0.9-10.3l-0.4-5.2c-0.2-1.7-0.4-3.4-0.6-5.1l-9.5-81
		l-0.4-0.3l-9.6-6.5l-1-0.7v-1.3L8.8,21.5z"/>
	<path style="&st0;" d="M40.7,1.8c-1.2,4.9-2.4,5.7-3.6,10.5s-2.4,9.6-3.7,14.5s-2.6,9.7-3.9,14.5s-2.7,9.6-4.1,14.4
		c0.7-5,1.5-9.9,2.2-14.8s1.7-9.8,2.4-14.7s1.7-9.8,2.5-14.8c0.8-5,1.8-5.9,2.7-10.8L40.7,1.8z"/>
	<polygon style="&st0;" points="26.1,203.1 20.4,257.2 24.7,203.4 24.7,203.2 1.1,121 1,120.4 1.2,119.8 23.5,68.5 28.1,70.5 
		4.9,120.5 5,121.1 26.1,202.9 	"/>
	<path style="&st0;" d="M34.8,11.9c1,3.6,1.9,7.3,2.8,10.9c0.9,3.6,1.8,7.3,2.7,10.9l5.3,21.8v0.1v0.1c0.5,7.3,1,14.5,1.4,21.8
		c0.4,7.3,0.9,14.6,1.3,21.8s0.8,14.5,1.1,21.8l0.9,21.8v0.2c-0.4,2.3-0.8,4.6-1.3,6.8l-1.4,6.7c-0.9,4.5-1.8,9-2.8,13.5
		c0.6-4.5,1.3-9.1,2-13.6l1-6.8c0.3-2.3,0.7-4.5,1.1-6.8v-0.2l-1.6-21.4c-0.5-7.3-1-14.5-1.4-21.8c-0.4-7.3-1-14.7-1.3-21.9
		c-0.3-7.2-0.7-14.1-1-21.4V56l-4.5-22c-0.8-3.7-1.5-7.4-2.2-11C36.1,19.4,35.4,15.6,34.8,11.9z"/>
	<path style="&st1;" d="M7.6,12.1l21.4,12l1.6,0.9l0.2,1.7L34.6,66l1.8,19.9l0.9,9.8l0.5,4.9c0.1,1.6,0.4,3.2,0.4,4.9l1.7,39.5
		l1.7,39.5v0.1l-3.3,55.1v0.1l-6.7,26.9l5.7-27.1v-0.1l1.7-55v0.1l-2.7-39.4l-2.7-39.4c-0.1-1.6-0.3-3.3-0.5-4.9L32.5,96l-1.2-9.8
		L29,66.5l-4.5-37.4L2.6,17.5l-1.7-0.9l-0.1-2L0,0.3L8,0L7.6,12.1z"/>
	<polygon style="&st1;" points="11.1,14.8 4.6,66.2 4.5,66.4 15.1,132.2 15.1,132.3 15.1,132.3 14.3,195.9 13.4,132.8 13.4,132.5 
		1,66.8 1,66.6 1,66.3 6.1,14.2 	"/>
</g>
</svg>
