<?xml version="1.0" encoding="utf-8"?>
<!-- Generator: Adobe Illustrator 21.0.2, SVG Export Plug-In . SVG Version: 6.00 Build 0)  -->
<!DOCTYPE svg PUBLIC "-//W3C//DTD SVG 1.1//EN" "http://www.w3.org/Graphics/SVG/1.1/DTD/svg11.dtd" [
	<!ENTITY st0 "fill:#EE4036;">
	<!ENTITY st1 "fill:#25A9E0;">
]>
<svg version="1.1" id="Layer_1" xmlns="http://www.w3.org/2000/svg" xmlns:xlink="http://www.w3.org/1999/xlink" x="0px" y="0px"
	 width="175.6px" height="190.6px" viewBox="0 0 175.6 190.6" style="enable-background:new 0 0 175.6 190.6;" xml:space="preserve"
	>
<g>
	<path style="&st0;" d="M37.6,0c1.6,1.4,3.2,2.9,4.7,4.4s3,3,4.5,4.6l-0.6-0.3l4.3,0.8c1.4,0.3,2.8,0.6,4.3,0.9s2.8,0.6,4.2,0.9
		s2.8,0.6,4.2,1l-1.1,0.4c0.9-1,1.9-2,2.8-2.9s1.9-1.9,2.9-2.9c1.9-1.9,3.9-3.8,6-5.5c-1.5,2.3-3.2,4.4-4.9,6.6
		c-0.8,1.1-1.7,2.1-2.6,3.2s-1.7,2-2.6,3.1l-0.4,0.5l-0.7-0.1c-1.4-0.3-2.8-0.6-4.3-0.8s-2.8-0.6-4.2-0.9s-2.8-0.6-4.2-1l-4.2-1
		l-0.4-0.1l-0.2-0.2c-1.1-2-2.4-3.7-3.7-5.4S38.8,1.8,37.6,0z"/>
	<polyline style="&st0;" points="63.2,186.3 67.5,140.3 67.6,141 54.9,94.8 54.8,94.7 54.8,94.6 52.1,34 52.1,34 52.1,33.9 
		55.2,12.5 52.7,34 52.7,34 57.2,94.4 57.1,94.2 71.1,139.9 71.2,140.3 71.2,140.6 68.2,186.6 	"/>
	<path style="&st0;" d="M137.7,0c-1.2,1.8-2.5,3.5-3.7,5.3s-2.6,3.4-4,5.1l-0.2,0.2l-0.4,0.1l-4.2,1c-1.4,0.4-2.8,0.6-4.2,1
		s-2.8,0.6-4.2,0.9s-2.8,0.6-4.3,0.8l-0.7,0.1l-0.4-0.5c-0.9-1-1.8-2.1-2.6-3.1s-1.7-2.1-2.6-3.2c-1.7-2.1-3.3-4.3-4.9-6.6
		c2.1,1.8,4.1,3.6,6,5.5c1,0.9,1.9,1.9,2.9,2.9s1.9,2,2.8,2.9l-1.1-0.4c1.4-0.4,2.8-0.7,4.2-1s2.8-0.6,4.2-0.9s2.8-0.6,4.3-0.9
		l4.3-0.7L128.4,9c1.5-1.6,3-3.1,4.5-4.6S136.1,1.4,137.7,0z"/>
	<polyline style="&st0;" points="111.2,186.9 104.2,140.8 104.1,140.3 104.2,139.9 118.2,94.2 118.2,94.4 122.6,34 122.7,34 
		120.1,12.5 123.3,33.9 123.3,34 123.3,34 120.5,94.6 120.5,94.7 120.4,94.8 107.8,141 107.8,140.2 116.1,186 	"/>
	<polyline style="&st0;" points="37.1,171.5 71.6,107.7 71.5,108 81.3,74.9 81.3,75 86.2,30.1 86.3,30.3 76.2,26.8 86.4,30 86.5,30 
		86.5,30.1 83,75.2 83,75.2 83,75.3 74.1,108.8 74.1,108.9 74,109 41.5,173.8 	"/>
	<polyline style="&st0;" points="133.2,173.8 100.7,109 100.7,108.9 100.6,108.8 91.8,75.3 91.8,75.2 91.8,75.2 88.3,30.1 88.3,30 
		88.4,30 98.6,26.8 88.5,30.3 88.6,30.1 93.5,75 93.5,74.9 103.3,108 103.2,107.7 137.7,171.5 	"/>
	<polyline style="&st1;" points="42.8,188.9 73.2,67.3 73.3,68.3 69.2,60.6 70.8,61.1 63.1,65.2 62.7,65.4 62.3,65.2 42,57.2 
		41.7,57 41.6,56.7 38.9,25.2 42.9,56.5 42.5,56 63,63.3 62.1,63.3 69.7,59 70.7,58.3 71.3,59.4 75.7,67 76,67.4 75.8,67.9 
		50.1,190.6 	"/>
	<polyline style="&st1;" points="0,176 40.5,146.2 40,146.8 50.6,123.2 50.5,123.7 51.4,74.4 51.4,74.5 46.5,65.1 51.8,74.3 
		51.8,74.4 51.8,74.4 52.7,123.7 52.7,123.9 52.6,124.1 42.8,148 42.7,148.4 42.4,148.7 3,179.9 	"/>
	<polyline style="&st1;" points="125.5,190.6 99.7,67.9 99.6,67.4 99.8,67 104.3,59.4 104.9,58.3 105.9,59 113.4,63.3 112.6,63.3 
		133.1,56 132.7,56.5 136.7,25.2 133.9,56.7 133.9,57 133.5,57.2 113.3,65.2 112.9,65.4 112.4,65.2 104.7,61.1 106.4,60.6 
		102.3,68.3 102.4,67.3 132.8,188.9 	"/>
	<polyline style="&st1;" points="172.5,179.9 133.2,148.7 132.9,148.4 132.7,148 123,124.1 122.9,123.9 122.9,123.7 123.8,74.4 
		123.8,74.4 123.8,74.3 129.1,65.1 124.1,74.5 124.2,74.4 125.1,123.7 125,123.2 135.6,146.8 135.1,146.2 175.6,176 	"/>
</g>
</svg>
