<?xml version="1.0" encoding="utf-8"?>
<!-- Generator: Adobe Illustrator 21.0.2, SVG Export Plug-In . SVG Version: 6.00 Build 0)  -->
<!DOCTYPE svg PUBLIC "-//W3C//DTD SVG 1.1//EN" "http://www.w3.org/Graphics/SVG/1.1/DTD/svg11.dtd" [
	<!ENTITY st0 "fill:#25A9E0;">
	<!ENTITY st1 "fill:#EE4036;">
]>
<svg version="1.1" id="Layer_1" xmlns="http://www.w3.org/2000/svg" xmlns:xlink="http://www.w3.org/1999/xlink" x="0px" y="0px"
	 width="61.9px" height="358.9px" viewBox="0 0 61.9 358.9" style="enable-background:new 0 0 61.9 358.9;" xml:space="preserve">
<path style="&st0;" d="M29.6,17.5v0.2v0.1L34,159.3l0.5,17.7l0.1,4.4c0,1.5,0.2,2.9,0.3,4.4l0.7,8.8l2.8,35.3l5.5,70.6v0.3l-0.1,0.3
	l-20.5,39.6v0.2l2.2,18.1l-2.8-18.3v-0.1v-0.1l19.2-39.8v-0.8l-7.3-69.5L30.7,195l-0.9-8.8c-0.1-1.5-0.3-2.9-0.4-4.4l-0.2-4.4
	l-0.9-17.7L21.1,18.2L29.6,17.5z"/>
<polygon style="&st0;" points="52.9,98.6 52.9,99.3 61.9,149.3 61.9,149.7 61.9,150 57.2,182.9 52.3,215.8 52.2,216.1 50.8,248.5 
	49.2,281.4 49.2,281.5 49.2,281.5 45.3,306 43.4,318.3 41.3,330.5 42.7,318.2 44,305.9 46.8,281.2 46.8,281.1 47.7,248.4 
	48.7,215.5 48.7,215.4 48.7,215.3 53.1,182.4 57.5,149.7 57.4,149.4 48.2,100.2 48.1,99.9 48.1,99.7 48,22.2 48,22.1 48,22 53,22.4 
	"/>
<path style="&st0;" d="M13.6,0.3c-2.1,9.2-4.3,18.4-6.4,27.6v0.2L7.3,44c0.1,5.5,0.1,10.9,0.1,16.3L7.5,93v0.2
	c-0.9,5.5-1.7,11-2.5,16.4l-2.6,16.1l0.1,0.7L7,153.7c1.6,9.4,3,18.8,4.4,28.2s3,18.8,4.3,28.2s2.8,18.8,4.1,28.2
	c-1.8-9.3-3.5-18.7-5.2-28s-3.3-18.7-5-28.1s-3.3-18.7-4.9-28.1L0,126v-0.2v-0.2l2.5-16.4c0.8-5.5,1.7-10.9,2.6-16.4v-0.2l0.1-32.3
	c0-5.5,0-10.9,0.1-16.3l0.2-16.3v-0.1v-0.1C7.8,18.3,10.1,9.1,12.6,0L13.6,0.3z"/>
<path style="&st1;" d="M17.2,7.6l0.9,6.5l0.4,6.6l0.8,13.2l3.3,52.7l3.3,52.7l1.6,26.3l0.8,13.2l1,13.1c2.8,35,5.6,70.1,8.2,105.2
	v0.2l-5.7,39.9v0.1l-0.1,0.1l-15.2,18.1l14.4-18.3l0.1-0.1l4.3-40v-0.2c-3.7-35-7.4-69.7-11-104.6l-1.4-13.1l-1.1-13.1l-2.2-26.3
	l-4.2-52.5l-4.2-52.5l-1.1-13.1L9.6,15l-1-6.5L17.2,7.6z"/>
</svg>
