<?xml version="1.0" encoding="utf-8"?>
<!-- Generator: Adobe Illustrator 21.0.2, SVG Export Plug-In . SVG Version: 6.00 Build 0)  -->
<!DOCTYPE svg PUBLIC "-//W3C//DTD SVG 1.1//EN" "http://www.w3.org/Graphics/SVG/1.1/DTD/svg11.dtd" [
	<!ENTITY st0 "fill:#25A9E0;">
	<!ENTITY st1 "fill:#EE4036;">
]>
<svg version="1.1" id="Layer_1" xmlns="http://www.w3.org/2000/svg" xmlns:xlink="http://www.w3.org/1999/xlink" x="0px" y="0px"
	 width="61.9px" height="358.9px" viewBox="0 0 61.9 358.9" style="enable-background:new 0 0 61.9 358.9;" xml:space="preserve">
<path style="&st0;" d="M40.8,18.2l-7.2,141.5l-0.9,17.7l-0.2,4.4c-0.1,1.5-0.3,2.9-0.4,4.4l-0.9,8.8l-3.8,35.4l-7.3,69.5v0.8
	l19.2,39.8v0.1v0.1L36.5,359l2.2-18.1v-0.2l-20.5-39.6l-0.1-0.3v-0.3l5.5-70.6l2.8-35.3l0.7-8.8c0.1-1.5,0.3-2.9,0.3-4.4l0.1-4.4
	l0.5-17.7l4.4-141.5v-0.1v-0.2L40.8,18.2z"/>
<polygon style="&st0;" points="8.9,22.4 13.9,22 13.9,22.1 13.9,22.2 13.8,99.7 13.8,99.9 13.7,100.2 4.5,149.4 4.4,149.7 
	8.8,182.4 13.2,215.3 13.2,215.4 13.2,215.5 14.2,248.4 15.1,281.1 15.1,281.2 17.9,305.9 19.2,318.2 20.6,330.5 18.5,318.3 
	16.6,306 12.7,281.5 12.7,281.5 12.7,281.4 11.1,248.5 9.7,216.1 9.6,215.8 4.7,182.9 0,150 0,149.7 0,149.3 9,99.3 9,98.6 "/>
<path style="&st0;" d="M49.3,0c2.5,9.1,4.8,18.3,7.1,27.5v0.1v0.1L56.6,44c0.1,5.4,0.1,10.8,0.1,16.3l0.1,32.3v0.2
	c0.9,5.5,1.8,10.9,2.6,16.4l2.5,16.4v0.2v0.2l-4.7,28.1c-1.6,9.4-3.2,18.7-4.9,28.1s-3.3,18.8-5,28.1s-3.4,18.7-5.2,28
	c1.3-9.4,2.8-18.8,4.1-28.2s2.9-18.8,4.3-28.2c1.4-9.4,2.8-18.8,4.4-28.2l4.5-27.3l0.1-0.7l-2.6-16.1c-0.8-5.4-1.6-10.9-2.5-16.4V93
	l0.1-32.7c0-5.4,0-10.8,0.1-16.3l0.1-15.9v-0.2c-2.1-9.2-4.3-18.4-6.4-27.6L49.3,0z"/>
<path style="&st1;" d="M53.3,8.5l-1,6.5l-0.5,6.7l-1.1,13.1l-4.2,52.5l-4.2,52.5l-2.2,26.3L39,179.2l-1.4,13.1
	c-3.6,34.9-7.3,69.6-11,104.6v0.2l4.3,40l0.1,0.1l14.4,18.3l-15.2-18.1l-0.1-0.1v-0.1l-5.7-39.9v-0.2c2.6-35.1,5.4-70.2,8.2-105.2
	l1-13.1l0.8-13.2l1.6-26.3l3.3-52.7l3.3-52.7l0.8-13.2l0.4-6.6l0.9-6.5L53.3,8.5z"/>
</svg>
