<?xml version="1.0" encoding="utf-8"?>
<!-- Generator: Adobe Illustrator 21.0.2, SVG Export Plug-In . SVG Version: 6.00 Build 0)  -->
<!DOCTYPE svg PUBLIC "-//W3C//DTD SVG 1.1//EN" "http://www.w3.org/Graphics/SVG/1.1/DTD/svg11.dtd" [
	<!ENTITY st0 "fill:#25A9E0;">
	<!ENTITY st1 "fill:#EE4036;">
]>
<svg version="1.1" id="Layer_1" xmlns="http://www.w3.org/2000/svg" xmlns:xlink="http://www.w3.org/1999/xlink" x="0px" y="0px"
	 width="193.8px" height="122px" viewBox="0 0 193.8 122" style="enable-background:new 0 0 193.8 122;" xml:space="preserve">
<g>
	<polyline style="&st0;" points="166.1,122 177.8,119.8 177.8,118.6 177.4,117.6 149.8,47.4 149,45.4 147.1,44.4 74.5,4.7 72.6,3.7 
		70.6,4.1 4,18.5 0.9,19.2 0,22.3 3.1,25.9 6.2,28.9 70.4,15.1 72.1,16.1 137.5,52.5 139.6,53.7 166.1,122 165.7,119.8 	"/>
	<path style="&st0;" d="M154.5,75.6c-3.4-0.3-6.8-0.8-10.2-1.2s-6.8-1-10.1-1.5s-6.7-1.1-10.1-1.6s-6.7-1.2-10.1-1.8l-0.3-0.1
		l-0.2-0.2c-2.5-1.8-5-3.6-7.4-5.4s-4.9-3.6-7.4-5.5s-4.9-3.7-7.3-5.6S86.6,49,84.3,47c2.7,1.6,5.3,3.2,7.8,4.8s5.2,3.3,7.7,5
		s5.1,3.4,7.6,5.1s4.3,3.2,6.9,4.9l0.2,0.1c3.4,0.6,6.7,1.3,10,1.9s6.7,1.3,10,2s6.7,1.4,10,2.2S151.2,74.7,154.5,75.6z"/>
	<path style="&st0;" d="M77.6,79.7c2.9-1.4,5.9-2.7,8.9-3.8c3-1.1,6-2.1,9.1-3.1s6.1-1.8,9.3-2.6c3.1-0.8,6.3-1.4,9.5-1.9
		c-2.9,1.4-5.9,2.7-8.9,3.8c-3,1.1-6,2.1-9.1,3.1s-6.1,1.8-9.2,2.6C84,78.6,80.8,79.2,77.6,79.7z"/>
	<path style="&st0;" d="M103.4,90.4c0.9-2,2-4,3.2-5.9s2.4-3.7,3.8-5.5c1.3-1.8,2.7-3.5,4.2-5.1c1.5-1.7,3.1-3.3,4.8-4.7
		c-0.9,2-2,4-3.2,5.9s-2.4,3.7-3.8,5.5s-2.7,3.5-4.2,5.1C106.7,87.4,105.1,88.9,103.4,90.4z"/>
	<path style="&st0;" d="M117.8,52c1.3,0.6,2.5,1.4,3.7,2.2s2.3,1.6,3.4,2.4c2.2,1.7,4.3,3.5,6.3,5.4l0.5,0.5l-0.2,0.6
		c-0.4,1.3-0.8,2.7-1.3,4s-1,2.6-1.6,3.9c0-1.4,0-2.8,0.2-4.2c0.1-1.4,0.1-1.6,0.3-3l0.1-0.4c-2.2-1.7-3.8-3.2-5.8-5.1
		c-1-1-2-2-2.9-3C119.6,54.2,118.7,53.1,117.8,52z"/>
	<polyline style="&st1;" points="182.1,118.6 191.6,117.1 193.8,115.2 193.4,114.2 165.8,44 165,42 163.1,41 90.5,1.3 88.1,0 
		85.7,1 15.1,29.5 12.7,30.5 12,32.9 16.6,36.2 19.1,39.3 86.5,12.7 87.4,12.4 155.6,50.3 156.8,53.5 182.1,118.6 	"/>
</g>
</svg>
