<?xml version="1.0" encoding="utf-8"?>
<!-- Generator: Adobe Illustrator 21.0.2, SVG Export Plug-In . SVG Version: 6.00 Build 0)  -->
<!DOCTYPE svg PUBLIC "-//W3C//DTD SVG 1.1//EN" "http://www.w3.org/Graphics/SVG/1.1/DTD/svg11.dtd" [
	<!ENTITY st0 "fill:#EE4036;">
	<!ENTITY st1 "fill:#25A9E0;">
]>
<svg version="1.1" id="Layer_1" xmlns="http://www.w3.org/2000/svg" xmlns:xlink="http://www.w3.org/1999/xlink" x="0px" y="0px"
	 width="160.7px" height="141.6px" viewBox="0 0 160.7 141.6" style="enable-background:new 0 0 160.7 141.6;" xml:space="preserve"
	>
<g>
	<path style="&st0;" d="M14.1,85c1.8-1.9,20.2-17.2,22.1-19s3.8-3.5,5.8-5.3s3.9-3.5,5.9-5.2s4-3.4,5.9-5.1l0.3-0.3h0.5
		c1.8,0,3.6,0,5.3,0h5.3c3.6,0.1,7.1,0.2,10.7,0.3h0.9v0.9c-0.1,2.4-0.2,4.8-0.3,7.2s-0.3,4.8-0.5,7.2c-0.2-2.4-0.4-4.8-0.5-7.2
		s-0.3-3.9-0.3-6.3h-0.8c-3.6,0.1-5.5,0.2-9.1,0.3H60c-1.8,0-3.2,0-4.9,0l-0.3,0.3c-2,1.7-3.3,2.7-5.4,4.4s-4.1,3.3-6.1,4.9
		S39,65.3,37,66.9S16.2,83.5,14.1,85z"/>
	<path style="&st0;" d="M93.3,44.6c-1.9-0.4-3.8-0.9-5.7-1.4s-3.8-1.1-5.6-1.7s-3.7-1.2-5.6-1.8l-4.3-1.6l-0.5-0.2
		c-1.4,1.2-2.3,2.1-3.7,3.2s-2.8,2.4-4.3,3.5c-2.9,2.3-5.8,4.6-9,6.7c2.4-2.8,5-5.5,7.7-8.1c1.3-1.3,2.7-2.6,4-3.8s2.7-2.5,4.1-3.8
		l0.6-0.5l0.7,0.3l5.5,2c1.8,0.7,3.6,1.4,5.4,2.2s3.7,1.6,5.5,2.4S91.5,43.7,93.3,44.6z"/>
	<path style="&st0;" d="M55.4,26.4c1,1.2,2,2.6,2.7,4c0.8,1.4,1.5,2.8,2.1,4.3s1.1,3,1.6,4.5c0.5,1.6,0.8,3.2,0.9,4.8
		c-1-1.2-2-2.6-2.7-4c-0.8-1.4-1.5-2.8-2.1-4.3s-1.1-3-1.6-4.5C55.9,29.7,55.6,28,55.4,26.4z"/>
	<path style="&st0;" d="M38.2,42.9c1.2,0.7,2.5,1.5,3.6,2.4c0.6,0.4,1.2,0.9,1.7,1.3s1.1,0.9,1.7,1.3c1.1,0.9,2.2,1.9,3.2,2.8
		c1,1,2.1,2,3,3l0.4,0.4v0.4c0,0.8-0.1,1.5-0.1,2.3s-0.1,1.5-0.2,2.3c-0.2,1.5-0.4,3.1-0.8,4.6c-0.4-1.5-0.6-3-0.8-4.6
		c-0.1-0.8-0.2-1.5-0.2-2.3s0-0.2,0-1l0.3-0.5c-1.1-0.9-2.1-1.9-3.2-2.8s-2-2-3-3c-0.5-0.5-1-1-1.5-1.6c-0.5-0.5-1-1.1-1.4-1.6
		C39.9,45.3,39,44.1,38.2,42.9z"/>
	<path style="&st0;" d="M141,141.6l9.2-1.5v-0.5L150,139L119.8,32.9l-0.7-2.5l-2.4-1L46.1,1l-2.4-1L41,1.5c-3.8,2-7.4,4.1-11,6.4
		s-7,4.7-10.3,7.3c-3.4,2.6-6.6,5.5-9.6,8.5L7.8,26l-2.2,2.4c-1.5,1.7-2.9,3.4-4.1,5.3c2.2-0.4,4.4-0.9,6.5-1.6l3.1-1l3-1.1
		c4-1.5,7.9-3.3,11.7-5.3s7.4-4.1,10.9-6.4s4.8-3.1,8.1-5.7l1.8,0.7l61.7,24.3l1.9,0.7L140.6,140L141,141.6z"/>
	<polyline style="&st1;" points="153.4,137.3 160.7,136.2 160.7,135.8 160.6,135.2 129.1,19.9 128.4,17.2 125.5,16.5 59,1.7 
		56.6,1.2 54.6,2.7 0,42 7.4,52.1 56,15.4 59.2,12.9 120.6,25.4 121.3,27.7 153.4,137.3 	"/>
</g>
</svg>
