<?xml version="1.0" encoding="utf-8"?>
<!-- Generator: Adobe Illustrator 21.0.2, SVG Export Plug-In . SVG Version: 6.00 Build 0)  -->
<!DOCTYPE svg PUBLIC "-//W3C//DTD SVG 1.1//EN" "http://www.w3.org/Graphics/SVG/1.1/DTD/svg11.dtd" [
	<!ENTITY st0 "fill:#25A9E0;">
	<!ENTITY st1 "fill:#EE4036;">
]>
<svg version="1.1" id="Layer_1" xmlns="http://www.w3.org/2000/svg" xmlns:xlink="http://www.w3.org/1999/xlink" x="0px" y="0px"
	 width="141.2px" height="319.1px" viewBox="0 0 141.2 319.1" style="enable-background:new 0 0 141.2 319.1;" xml:space="preserve"
	>
<title>Asset 12</title>
<g>
	<path style="&st0;" d="M64.2,64.1c-2.7,0.2-5.5,0.4-8.2,0.5l-4.1,0.2l-4.1,0.1c-2.7,0.1-5.4,0.1-8.2,0s-5.4-0.1-8.1-0.1h-0.4
		l-0.5-0.3c-3.5-1.7-7-3.5-10.5-5.3s-6.9-3.6-10.4-5.4l-1.2-0.7l-0.1-1.3c-0.2-4.3-0.3-8.6-0.4-13s-0.1-6,0-10.4l-0.7-0.2
		c-1.6,1-0.6,0.5-2.3,1.4s-3.3,1.9-5,2.8c1.4-1.3,2.8-2.6,4.2-3.9C5.6,27.2,7,26,8.5,24.8l1.5-1.4l0.3,2.3C11,30,11.6,34.3,12,38.6
		s0.8,7.2,1.1,11.5l1,0.5c3.5,1.7,4.8,2.4,8.2,4.2s5.7,3.1,9.1,5l0.7,0.4c2.7,0.2,5,0.4,7.7,0.7s5.4,0.5,8.1,0.9l4,0.5l4,0.6
		C58.8,63.2,61.5,63.6,64.2,64.1z"/>
	<path style="&st0;" d="M31.7,62.5c-1.4,1.3-2.8,2.4-4.2,3.5c-0.7,0.6-1.4,1.1-2.2,1.7c-0.8,0.6-1.5,1.1-2.2,1.6
		c-3,2.1-5.6,3.6-8.7,5.5l-0.2,0.3c-0.3,1-0.2,1.3-0.5,2.3s-0.5,1.9-0.9,2.9c-0.6,1.9-1.2,3.8-2,5.7c0.1-2,0.2-4,0.5-6
		c0.1-1,0.3-2,0.4-3c0.1-1,0.3-2,0.5-2.9l0.1-0.4l0.4-0.3c3-2.1,6-4,9.2-5.8c0.8-0.5,1.6-0.9,2.4-1.3s1.6-0.9,2.4-1.3
		C28.3,63.9,30,63.2,31.7,62.5z"/>
	<polygon style="&st0;" points="78.5,306.6 78.5,306.5 78.5,306.4 82.8,257.3 87.1,208.5 87.1,208.3 85,177.6 82.9,146.8 78.9,85.2 
		78.9,84.8 79,84.6 86.8,60.1 90.7,47.8 94.7,35.6 91.4,48 88.1,60.5 81.5,84.5 81.4,84.9 86.6,146.5 89.1,177.3 91.5,208.1 
		91.5,208.3 91.5,208.5 87.6,257.7 83.5,306.8 82.1,306.9 	"/>
	<polygon style="&st1;" points="41.7,319.1 40.6,306 40.1,299.4 39.1,292.9 35.3,266.9 20,162.6 19.9,161.7 20.1,160.7 31.5,108.7 
		31.8,107.2 33,106.1 131,6.5 136.9,7.2 141.2,11.5 140.9,13.5 139.5,15 41.8,112.8 41.5,113.9 30.6,161.4 30.5,162.8 44.2,265.8 
		47.7,292 48.5,298.5 49,305.1 49.8,318.3 	"/>
	<polyline style="&st0;" points="51.6,303 59.8,302.5 60.1,302.2 60,302 44.5,166.3 44.4,165.4 56.1,80.9 126.1,8.3 127.4,6.8 
		127.7,4.8 121.7,0.6 117.4,0 46.8,74.4 45.5,75.8 45.3,77.6 34,164.6 34,165.3 34,165.9 51.6,303 	"/>
</g>
</svg>
