<?xml version="1.0" encoding="utf-8"?>
<!-- Generator: Adobe Illustrator 21.0.2, SVG Export Plug-In . SVG Version: 6.00 Build 0)  -->
<!DOCTYPE svg PUBLIC "-//W3C//DTD SVG 1.1//EN" "http://www.w3.org/Graphics/SVG/1.1/DTD/svg11.dtd" [
	<!ENTITY st0 "fill:#25A9E0;">
	<!ENTITY st1 "fill:#EE4036;">
]>
<svg version="1.1" id="Layer_1" xmlns="http://www.w3.org/2000/svg" xmlns:xlink="http://www.w3.org/1999/xlink" x="0px" y="0px"
	 width="96.9px" height="320.6px" viewBox="0 0 96.9 320.6" style="enable-background:new 0 0 96.9 320.6;" xml:space="preserve">
<g>
	<polygon style="&st0;" points="21.7,310 21.7,309.9 21.7,309.8 17.5,260.6 13.1,211.8 13.1,211.6 15.2,181 17.3,150.1 21.3,88.4 
		21.3,88.3 21.3,88.1 12.5,45.4 8.2,24 3.7,2.7 7.4,24.2 11.2,45.7 18.8,88.5 18.7,88.9 13.6,149.9 11.1,180.7 8.7,211.5 8.7,211.7 
		8.7,211.9 12.7,261 16.8,310.2 19.3,310.7 	"/>
	<path style="&st1;" d="M57.9,320.6l2.4-25.4l1.2-12.7l0.6-6.4c0.2-2.1,0.5-4.2,0.7-6.3l11.9-101.5l0.2-1.3l-0.5-1.3l-34-82
		l-0.3-0.6c-2.5-5.5-5.3-10.9-8.2-16.2s-6-10.5-9.3-15.6c-1.6-2.5-3.3-5.1-5.1-7.5s-3.5-5-5.4-7.4l-2.8-3.6l-3-3.5
		c-2-2.4-4.1-4.6-6.4-6.8c0.7,3.1,1.5,6.1,2.5,9l1.4,4.4L5.5,40c1,2.9,2.3,5.7,3.4,8.5s2.4,5.6,3.7,8.3c2.6,5.5,5.5,10.8,8.4,16.1
		s6.1,10.4,9.5,15.5l-0.3-0.6l33.2,79l0.7,1.6L54.2,269c-0.2,2.1-0.4,4.2-0.6,6.4l-0.5,6.4l-0.9,12.8L50.4,320L57.9,320.6z"/>
	<path style="&st0;" d="M41.4,306.4h4.4l17.6-137.1l0.1-0.6l-0.1-0.7L52.2,81l-0.1-1l-0.6-1.1c-3.5-7-7.2-13.9-11.1-20.7
		S32.5,44.7,28.3,38c-2.1-3.3-4.3-6.6-6.5-9.8s-4.4-6.5-6.8-9.6l-3.5-4.8L7.9,9.1C5.4,6,2.9,3,0.1,0C1.3,3.8,2.6,7.6,4,11.3l2.2,5.5
		l2.3,5.5c1.5,3.6,3.2,7.2,4.8,10.8s3.4,7.1,5.1,10.6c3.5,7,7.3,13.9,11.1,20.7c3.8,6.8,8,13.5,12.2,20.1l-0.7-2l11.8,84.9l0.1,1.9
		l-15.5,136v0.2v0.1L41.4,306.4z"/>
	<path style="&st1;" d="M96,33.5c-2.4,1.9-4.8,3.7-7.3,5.4c-1.2,0.9-2.5,1.8-3.7,2.6l-3.1,2.1l-0.1,0.5c-0.2,1.9-0.5,2.7-0.7,4.6
		c-0.2,1.9-0.6,3.9-0.9,5.8c-0.6,3.8-1.3,7.7-2,11.5l-0.1,0.4L78,66.8c-1.7,2.9-3.3,5.8-5,8.7s-3.4,5.8-5.2,8.6L67,85.5l-1.5-0.3
		c-3.4-0.6-6.8-1.2-10.2-1.8c-3.4-0.7-6.8-1.3-10.1-2c-3.3-0.7-6.7-1.4-10.1-2.2c-3.4-0.8-6.7-1.6-10-2.5c3.5,0.1,6.9,0.3,10.3,0.6
		c3.4,0.2,6.9,0.6,10.3,0.9c3.4,0.3,6.9,0.8,10.3,1.1c3.4,0.3,4.5,0.5,7.9,1l0.7,0.1c1.6-2.9,2.5-4.5,4.1-7.4c1.7-2.9,2.9-5,4.6-7.9
		l0.4-0.8c0.8-3.8,1.5-6.8,2.4-10.6c0.4-1.9,0.9-3.8,1.4-5.7s0.9-3.8,1.4-5.7l0.2-0.8l0.5-0.3l4-2c1.3-0.7,2.7-1.3,4.1-2
		C90.5,35.9,93.2,34.6,96,33.5z"/>
	<path style="&st1;" d="M96.9,73.8c-1.4-0.4-2.7-1-4-1.7c-1.2-0.7-2.4-1.4-3.5-2.2c-2.2-1.6-3.4-2.6-5.3-4.6L83,65.5
		c-1.6,0.3-0.6,0.1-2.2,0.2c-1.7,0.1-3.4,0.1-5.1-0.2c1.3-1.1,2.7-2.1,4.1-2.9c1.4-0.8,2.9-1.5,4.4-2.1l1.1-0.4l1.2,1
		c2.1,1.7,4.1,3.6,5.8,5.6c0.9,1.1,1.7,2.2,2.4,3.3C95.7,71.2,96.4,72.5,96.9,73.8z"/>
</g>
</svg>
