<?xml version="1.0" encoding="utf-8"?>
<!-- Generator: Adobe Illustrator 21.0.2, SVG Export Plug-In . SVG Version: 6.00 Build 0)  -->
<!DOCTYPE svg PUBLIC "-//W3C//DTD SVG 1.1//EN" "http://www.w3.org/Graphics/SVG/1.1/DTD/svg11.dtd" [
	<!ENTITY st0 "fill:#25A9E0;">
	<!ENTITY st1 "fill:#EE4036;">
]>
<svg version="1.1" id="Layer_1" xmlns="http://www.w3.org/2000/svg" xmlns:xlink="http://www.w3.org/1999/xlink" x="0px" y="0px"
	 width="142.4px" height="289.8px" viewBox="0 0 142.4 289.8" style="enable-background:new 0 0 142.4 289.8;" xml:space="preserve"
	>
<g>
	<polygon style="&st0;" points="21.6,279.3 30.2,273 31.2,272.3 26.7,139 26.7,138.6 26.8,138 55.4,22 56.1,19.2 59,18.5 125.2,2.1 
		127.5,1.5 129.6,2.9 127.7,12.7 69.3,26 64,27.3 34,139.9 34.2,142.3 36.1,273.4 36.1,274.6 35.1,275.4 24.4,283.1 	"/>
	<path style="&st0;" d="M15,289.8c-1.5-4.8-2.8-9.6-4.2-14.4s-2.7-9.6-4.1-14.4s-2.6-9.6-3.9-14.4l-0.1-0.2V246
		c-0.3-6.2-0.7-12.4-0.9-18.5L1,209l-0.6-18.5L0,172.6l0.2-2.3l0.2-1c0.8-4.9,1.3-8,2.1-12.9s1.7-9.9,2.5-14.8l2.6-14.8
		c0.9-4.9,1.8-9.9,2.7-14.8l0.1-0.7l0.4-0.5c3-4,6-7.9,9.1-11.9S26,91,29.1,87.1s6.2-7.8,9.3-11.7s6.3-7.7,9.5-11.6
		c-2.6,4.3-5.3,8.5-7.9,12.7s-5.4,8.4-8.1,12.6s-5.5,8.3-8.2,12.5s-4,6.1-6.8,10.2l-1,2c-0.7,5-1.2,8.8-1.9,13.8l-2.1,14.9
		c-0.7,5-1.4,9.9-2.2,14.9c-0.7,5-1.5,9.9-2.3,14.9v1.4l0.4,16.4l0.3,18.5l0.1,18.5c0.1,6.2,0,12.4,0,18.6l0.2,0.7
		c1,4.9,1.7,8.5,2.7,13.4c1,4.9,2,9.8,2.9,14.7s1.9,9.8,2.7,14.7L15,289.8z"/>
	<path style="&st0;" d="M4,282.5c0.8-3.7,1.6-7.3,2.5-11s1.7-7.3,2.6-11c-0.6,3.7-1.2,7.4-1.8,11.1s-1.3,7.4-2,11.1L4,282.5z"/>
	<polygon style="&st1;" points="13.3,275.2 13.5,273.5 15,272.6 36.2,260.4 36.2,258.2 36.7,202.5 36.9,172.6 37.2,142.7 
		37.2,142.2 37.4,141.6 65.1,34.8 65.7,32.3 68.1,31.2 138,1 140.3,0 142.4,11.4 78.7,38.3 74.7,40 46.2,143.9 46.2,145.5 
		45.6,172.8 44.8,202.6 43.1,262.4 43,264.4 41.4,265.4 18.3,278.3 	"/>
	<polygon style="&st1;" points="65,66.2 69.3,127.1 69.3,127.9 68.9,128.4 17.4,191.2 17.3,192.1 15.1,259.5 15.6,191 15.6,190.8 
		15.8,190.5 65.2,127.2 65.6,126.6 60,66.6 	"/>
	<polygon style="&st1;" points="36.4,284.7 32.8,262.8 37.8,262.1 39.9,284.3 	"/>
</g>
</svg>
