<?xml version="1.0" encoding="utf-8"?>
<!-- Generator: Adobe Illustrator 21.0.2, SVG Export Plug-In . SVG Version: 6.00 Build 0)  -->
<!DOCTYPE svg PUBLIC "-//W3C//DTD SVG 1.1//EN" "http://www.w3.org/Graphics/SVG/1.1/DTD/svg11.dtd" [
	<!ENTITY st0 "fill:#25A9E0;">
	<!ENTITY st1 "fill:#EE4036;">
]>
<svg version="1.1" id="Layer_1" xmlns="http://www.w3.org/2000/svg" xmlns:xlink="http://www.w3.org/1999/xlink" x="0px" y="0px"
	 width="142.4px" height="289.8px" viewBox="0 0 142.4 289.8" style="enable-background:new 0 0 142.4 289.8;" xml:space="preserve"
	>
<g>
	<polygon style="&st0;" points="120.8,279.3 112.2,273 111.2,272.3 115.7,139 115.7,138.6 115.6,138 87,22 86.3,19.2 83.4,18.5 
		17.2,2.1 14.9,1.5 12.8,2.9 14.7,12.7 73.1,26 78.4,27.3 108.4,139.9 108.2,142.3 106.3,273.4 106.3,274.6 107.3,275.4 118,283.1 	
		"/>
	<path style="&st0;" d="M127.4,289.8c1.5-4.8,2.8-9.6,4.2-14.4c1.4-4.8,2.7-9.6,4.1-14.4c1.4-4.8,2.6-9.6,3.9-14.4l0.1-0.2V246
		c0.3-6.2,0.7-12.4,0.9-18.5l0.8-18.5l0.6-18.5l0.4-17.9l-0.2-2.3l-0.2-1c-0.8-4.9-1.3-8-2.1-12.9c-0.8-4.9-1.7-9.9-2.5-14.8
		l-2.6-14.8c-0.9-4.9-1.8-9.9-2.7-14.8l-0.1-0.7l-0.4-0.5c-3-4-6-7.9-9.1-11.9s-6.1-7.9-9.2-11.8s-6.2-7.8-9.3-11.7
		s-6.3-7.7-9.5-11.6c2.6,4.3,5.3,8.5,7.9,12.7s5.4,8.4,8.1,12.6c2.7,4.2,5.5,8.3,8.2,12.5c2.7,4.2,4,6.1,6.8,10.2l1,2
		c0.7,5,1.2,8.8,1.9,13.8l2.1,14.9c0.7,5,1.4,9.9,2.2,14.9c0.7,5,1.5,9.9,2.3,14.9l0,1.4l-0.4,16.4l-0.3,18.5l-0.1,18.5
		c-0.1,6.2,0,12.4,0,18.6l-0.2,0.7c-1,4.9-1.7,8.5-2.7,13.4c-1,4.9-2,9.8-2.9,14.7c-0.9,4.9-1.9,9.8-2.7,14.7L127.4,289.8z"/>
	<path style="&st0;" d="M138.4,282.5c-0.8-3.7-1.6-7.3-2.5-11s-1.7-7.3-2.6-11c0.6,3.7,1.2,7.4,1.8,11.1c0.6,3.7,1.3,7.4,2,11.1
		L138.4,282.5z"/>
	<polygon style="&st1;" points="129.1,275.2 128.9,273.5 127.4,272.6 106.2,260.4 106.2,258.2 105.7,202.5 105.5,172.6 105.2,142.7 
		105.2,142.2 105,141.6 77.3,34.8 76.7,32.3 74.3,31.2 4.4,1 2.1,0 0,11.4 63.7,38.3 67.7,40 96.2,143.9 96.2,145.5 96.8,172.8 
		97.6,202.6 99.3,262.4 99.4,264.4 101,265.4 124.1,278.3 	"/>
	<polygon style="&st1;" points="77.4,66.2 73.1,127.1 73.1,127.9 73.5,128.4 125,191.2 125.1,192.1 127.3,259.5 126.8,191 
		126.8,190.8 126.6,190.5 77.2,127.2 76.8,126.6 82.4,66.6 	"/>
	<polygon style="&st1;" points="106,284.7 109.6,262.8 104.6,262.1 102.5,284.3 	"/>
</g>
</svg>
