<?xml version="1.0" encoding="utf-8"?>
<!-- Generator: Adobe Illustrator 21.0.2, SVG Export Plug-In . SVG Version: 6.00 Build 0)  -->
<!DOCTYPE svg PUBLIC "-//W3C//DTD SVG 1.1//EN" "http://www.w3.org/Graphics/SVG/1.1/DTD/svg11.dtd" [
	<!ENTITY st0 "fill:#F49B91;">
	<!ENTITY st1 "fill:#EEE8D2;">
	<!ENTITY st2 "fill:#F06156;">
]>
<svg version="1.1" id="Layer_1" xmlns="http://www.w3.org/2000/svg" xmlns:xlink="http://www.w3.org/1999/xlink" x="0px" y="0px"
	 width="316px" height="507px" viewBox="0 0 316 507" style="enable-background:new 0 0 316 507;" xml:space="preserve">
<title>Asset 25</title>
<g id="Layer_2">
	<g id="Layer_1-2">
		<polygon style="&st0;" points="316,155 165,68 0,150 54,176 70,248 56,392 54,429 94,489 119,504 165,465 210,504 236,489 
			275,429 273,392 259,248 276,179 		"/>
		<polygon style="&st1;" points="226,23 260,8 293,5 263,0 218,10 163,17 107,10 62,0 32,5 66,8 99,23 117,40 130,63 93,167 81,195 
			95,208 85,225 91,251 81,274 92,283 85,298 92,303 88,311 88,336 103,338 91,346 100,352 96,373 85,379 89,396 78,404 101,446 
			112,455 116,482 126,480 131,494 148,507 163,506 177,507 193,492 199,477 208,474 209,462 222,454 222,441 247,404 236,396 
			241,379 239,366 231,357 234,346 222,335 237,331 230,311 240,308 233,295 243,283 244,274 234,251 240,225 230,208 244,195 
			232,167 195,63 208,40 		"/>
		<polygon style="&st2;" points="158,180 109,193 95,224 101,245 158,216 		"/>
		<polygon style="&st2;" points="104,260 106,281 136,272 159,270 158,231 127,238 		"/>
		<polygon style="&st2;" points="133,278 102,291 112,334 153,331 160,319 159,277 		"/>
		<polygon style="&st2;" points="231,224 217,193 168,180 168,216 225,245 		"/>
		<polygon style="&st2;" points="220,281 222,260 199,238 168,231 167,270 188,271 		"/>
		<polygon style="&st2;" points="169,277 168,319 176,331 217,334 227,291 196,278 		"/>
		<polygon style="&st2;" points="176,338 171,344 173,395 165,439 167,395 160,345 155,340 132,342 106,345 111,394 129,454 
			146,500 176,503 204,443 222,391 225,363 223,343 204,338 		"/>
		<polygon style="&st2;" points="155,50 158,148 143,179 88,189 55,170 25,84 38,48 106,34 		"/>
		<polygon style="&st2;" points="171,50 167,148 182,179 237,189 270,170 300,84 287,48 219,34 		"/>
	</g>
</g>
</svg>
