<?xml version="1.0" encoding="utf-8"?>
<!-- Generator: Adobe Illustrator 21.0.2, SVG Export Plug-In . SVG Version: 6.00 Build 0)  -->
<!DOCTYPE svg PUBLIC "-//W3C//DTD SVG 1.1//EN" "http://www.w3.org/Graphics/SVG/1.1/DTD/svg11.dtd" [
	<!ENTITY st0 "fill:#F49B91;">
	<!ENTITY st1 "fill:#EEE8D2;">
	<!ENTITY st2 "fill:#F06156;">
]>
<svg version="1.1" id="Layer_1" xmlns="http://www.w3.org/2000/svg" xmlns:xlink="http://www.w3.org/1999/xlink" x="0px" y="0px"
	 width="49px" height="238px" viewBox="0 0 49 238" style="enable-background:new 0 0 49 238;" xml:space="preserve">
<title>Asset 28</title>
<g id="Layer_2">
	<g id="Layer_1-2">
		<polygon style="&st0;" points="20,25 32,33 43,41 49,119 33,222 22,238 10,198 29,121 		"/>
		<polygon style="&st1;" points="29,70 21,43 11,17 18,18 21,0 28,25 31,27 34,19 38,21 43,15 42,33 48,33 45,54 40,61 41,73 
			32,100 		"/>
		<polygon style="&st2;" points="12,22 25,49 36,90 26,137 15,232 3,225 0,127 2,51 		"/>
	</g>
</g>
</svg>
