<?xml version="1.0" encoding="utf-8"?>
<!-- Generator: Adobe Illustrator 21.0.2, SVG Export Plug-In . SVG Version: 6.00 Build 0)  -->
<!DOCTYPE svg PUBLIC "-//W3C//DTD SVG 1.1//EN" "http://www.w3.org/Graphics/SVG/1.1/DTD/svg11.dtd" [
	<!ENTITY st0 "fill:#F49B91;">
	<!ENTITY st1 "fill:#EEE8D2;">
	<!ENTITY st2 "fill:#F06156;">
]>
<svg version="1.1" id="Layer_1" xmlns="http://www.w3.org/2000/svg" xmlns:xlink="http://www.w3.org/1999/xlink" x="0px" y="0px"
	 width="49px" height="238px" viewBox="0 0 49 238" style="enable-background:new 0 0 49 238;" xml:space="preserve">
<title>Asset 28</title>
<g id="Layer_2">
	<g id="Layer_1-2">
		<polygon style="&st0;" points="20,121 39,198 27,238 16,222 0,119 6,41 17,33 29,25 		"/>
		<polygon style="&st1;" points="17,100 8,73 9,61 4,54 1,33 7,33 6,15 11,21 15,19 18,27 21,25 28,0 31,18 38,17 28,43 20,70 		"/>
		<polygon style="&st2;" points="47,51 49,127 46,225 34,232 23,137 13,90 24,49 37,22 		"/>
	</g>
</g>
</svg>
