<?xml version="1.0" encoding="utf-8"?>
<!-- Generator: Adobe Illustrator 21.0.2, SVG Export Plug-In . SVG Version: 6.00 Build 0)  -->
<!DOCTYPE svg PUBLIC "-//W3C//DTD SVG 1.1//EN" "http://www.w3.org/Graphics/SVG/1.1/DTD/svg11.dtd" [
	<!ENTITY st0 "fill:#F49B91;">
	<!ENTITY st1 "fill:#EEE8D2;">
	<!ENTITY st2 "fill:#F06156;">
]>
<svg version="1.1" id="Layer_1" xmlns="http://www.w3.org/2000/svg" xmlns:xlink="http://www.w3.org/1999/xlink" x="0px" y="0px"
	 width="72px" height="349px" viewBox="0 0 72 349" style="enable-background:new 0 0 72 349;" xml:space="preserve">
<title>Asset 29</title>
<g id="Layer_2">
	<g id="Layer_1-2">
		<polygon style="&st0;" points="43,324 54,331 64,314 63,239 72,163 71,72 34,52 9,85 1,149 17,216 37,290 		"/>
		<polygon style="&st1;" points="29,10 43,53 39,0 49,25 54,11 59,36 59,57 68,58 62,99 67,134 60,169 55,228 66,309 71,344 65,349 
			60,340 62,324 45,243 34,144 32,83 25,46 18,29 30,35 		"/>
		<polygon style="&st2;" points="6,79 19,82 25,130 27,189 52,269 54,286 41,267 11,207 0,144 1,104 		"/>
	</g>
</g>
</svg>
