<?xml version="1.0" encoding="utf-8"?>
<!-- Generator: Adobe Illustrator 21.0.2, SVG Export Plug-In . SVG Version: 6.00 Build 0)  -->
<!DOCTYPE svg PUBLIC "-//W3C//DTD SVG 1.1//EN" "http://www.w3.org/Graphics/SVG/1.1/DTD/svg11.dtd" [
	<!ENTITY st0 "fill:#F49B91;">
	<!ENTITY st1 "fill:#EEE8D2;">
	<!ENTITY st2 "fill:#F06156;">
]>
<svg version="1.1" id="Layer_1" xmlns="http://www.w3.org/2000/svg" xmlns:xlink="http://www.w3.org/1999/xlink" x="0px" y="0px"
	 width="72px" height="349px" viewBox="0 0 72 349" style="enable-background:new 0 0 72 349;" xml:space="preserve">
<title>Asset 29</title>
<g id="Layer_2">
	<g id="Layer_1-2">
		<polygon style="&st0;" points="35,290 55,216 71,149 63,85 38,52 1,72 0,163 9,239 8,314 18,331 29,324 		"/>
		<polygon style="&st1;" points="42,35 54,29 47,46 40,83 38,144 27,243 10,324 12,340 7,349 1,344 6,309 17,228 12,169 5,134 
			10,99 4,58 13,57 13,36 18,11 23,25 33,0 29,53 43,10 		"/>
		<polygon style="&st2;" points="71,104 72,144 61,207 31,267 18,286 20,269 45,189 47,130 53,82 66,79 		"/>
	</g>
</g>
</svg>
