<?xml version="1.0" encoding="utf-8"?>
<!-- Generator: Adobe Illustrator 21.0.2, SVG Export Plug-In . SVG Version: 6.00 Build 0)  -->
<!DOCTYPE svg PUBLIC "-//W3C//DTD SVG 1.1//EN" "http://www.w3.org/Graphics/SVG/1.1/DTD/svg11.dtd" [
	<!ENTITY st0 "fill:#F49B91;">
	<!ENTITY st1 "fill:#F06156;">
]>
<svg version="1.1" id="Layer_1" xmlns="http://www.w3.org/2000/svg" xmlns:xlink="http://www.w3.org/1999/xlink" x="0px" y="0px"
	 width="133px" height="271px" viewBox="0 0 133 271" style="enable-background:new 0 0 133 271;" xml:space="preserve">
<title>Asset 26</title>
<g id="Layer_2">
	<g id="Layer_1-2">
		<polygon style="&st0;" points="0,15 27,53 51,83 47,128 101,166 122,178 126,95 121,66 104,20 87,5 48,0 		"/>
		<polygon style="&st1;" points="14,15 3,23 60,31 83,48 90,95 113,117 130,109 123,63 105,17 87,4 47,0 		"/>
		<polygon style="&st1;" points="71,128 71,165 84,173 91,209 99,271 115,259 130,230 133,174 118,133 84,102 		"/>
	</g>
</g>
</svg>
