<?xml version="1.0" encoding="utf-8"?>
<!-- Generator: Adobe Illustrator 21.0.2, SVG Export Plug-In . SVG Version: 6.00 Build 0)  -->
<!DOCTYPE svg PUBLIC "-//W3C//DTD SVG 1.1//EN" "http://www.w3.org/Graphics/SVG/1.1/DTD/svg11.dtd" [
	<!ENTITY st0 "fill:#F49B91;">
	<!ENTITY st1 "fill:#F06156;">
]>
<svg version="1.1" id="Layer_1" xmlns="http://www.w3.org/2000/svg" xmlns:xlink="http://www.w3.org/1999/xlink" x="0px" y="0px"
	 width="133px" height="271px" viewBox="0 0 133 271" style="enable-background:new 0 0 133 271;" xml:space="preserve">
<title>Asset 26</title>
<g id="Layer_2">
	<g id="Layer_1-2">
		<polygon style="&st0;" points="85,0 46,5 29,20 12,66 7,95 11,178 32,166 86,128 82,83 106,53 133,15 		"/>
		<polygon style="&st1;" points="86,0 46,4 28,17 10,63 3,109 20,117 43,95 50,48 73,31 130,23 119,15 		"/>
		<polygon style="&st1;" points="49,102 15,133 0,174 3,230 18,259 34,271 42,209 49,173 62,165 62,128 		"/>
	</g>
</g>
</svg>
