<?xml version="1.0" encoding="utf-8"?>
<!-- Generator: Adobe Illustrator 21.0.2, SVG Export Plug-In . SVG Version: 6.00 Build 0)  -->
<!DOCTYPE svg PUBLIC "-//W3C//DTD SVG 1.1//EN" "http://www.w3.org/Graphics/SVG/1.1/DTD/svg11.dtd" [
	<!ENTITY st0 "fill:#F49B91;">
	<!ENTITY st1 "fill:#F06156;">
]>
<svg version="1.1" id="Layer_1" xmlns="http://www.w3.org/2000/svg" xmlns:xlink="http://www.w3.org/1999/xlink" x="0px" y="0px"
	 width="114px" height="420px" viewBox="0 0 114 420" style="enable-background:new 0 0 114 420;" xml:space="preserve">
<title>Asset 27</title>
<g id="Layer_2">
	<g id="Layer_1-2">
		<polygon style="&st0;" points="40,413 59,420 83,367 88,308 100,214 114,66 40,29 5,97 21,234 41,329 31,383 		"/>
		<polygon style="&st1;" points="53,60 25,130 25,195 37,268 52,313 61,380 73,319 79,223 71,169 70,101 		"/>
		<polygon style="&st1;" points="22,0 40,22 44,61 29,97 17,131 16,180 2,141 0,80 8,30 		"/>
	</g>
</g>
</svg>
