<?xml version="1.0" encoding="utf-8"?>
<!-- Generator: Adobe Illustrator 21.0.2, SVG Export Plug-In . SVG Version: 6.00 Build 0)  -->
<!DOCTYPE svg PUBLIC "-//W3C//DTD SVG 1.1//EN" "http://www.w3.org/Graphics/SVG/1.1/DTD/svg11.dtd" [
	<!ENTITY st0 "fill:#F49B91;">
	<!ENTITY st1 "fill:#F06156;">
]>
<svg version="1.1" id="Layer_1" xmlns="http://www.w3.org/2000/svg" xmlns:xlink="http://www.w3.org/1999/xlink" x="0px" y="0px"
	 width="114px" height="420px" viewBox="0 0 114 420" style="enable-background:new 0 0 114 420;" xml:space="preserve">
<title>Asset 27</title>
<g id="Layer_2">
	<g id="Layer_1-2">
		<polygon style="&st0;" points="83,383 73,329 93,234 109,97 74,29 0,66 14,214 26,308 31,367 55,420 74,413 		"/>
		<polygon style="&st1;" points="44,101 43,169 35,223 41,319 53,380 62,313 77,268 89,195 89,130 61,60 		"/>
		<polygon style="&st1;" points="106,30 114,80 112,141 98,180 97,131 85,97 70,61 74,22 92,0 		"/>
	</g>
</g>
</svg>
