<?xml version="1.0" encoding="utf-8"?>
<!-- Generator: Adobe Illustrator 21.0.2, SVG Export Plug-In . SVG Version: 6.00 Build 0)  -->
<!DOCTYPE svg PUBLIC "-//W3C//DTD SVG 1.1//EN" "http://www.w3.org/Graphics/SVG/1.1/DTD/svg11.dtd" [
	<!ENTITY st0 "fill:#EEE8D2;">
	<!ENTITY st1 "fill:#DCD3BC;">
]>
<svg version="1.1" id="Layer_1" xmlns="http://www.w3.org/2000/svg" xmlns:xlink="http://www.w3.org/1999/xlink" x="0px" y="0px"
	 width="218px" height="128px" viewBox="0 0 218 128" style="enable-background:new 0 0 218 128;" xml:space="preserve">
<g id="hip">
	<polygon style="&st0;" points="45,0 66,6 78,26 78,47 102,53 112,71 103,106 88,106 69,78 57,86 57,110 30,91 1,42 31,0 	"/>
	<polygon style="&st1;" points="73,128 21,93 0,42 31,1 33,6 14,42 37,89 72,113 97,106 104,81 109,84 109,111 	"/>
	<polygon style="&st0;" points="173,0 152,6 140,26 140,47 116,53 105,71 114,106 129,106 149,78 161,86 161,110 188,91 216,42 
		186,0 	"/>
	<polygon style="&st1;" points="145,128 197,93 218,42 187,1 185,6 204,42 181,89 146,113 121,106 114,81 109,84 109,111 	"/>
</g>
</svg>
