<?xml version="1.0" encoding="utf-8"?>
<!-- Generator: Adobe Illustrator 21.0.2, SVG Export Plug-In . SVG Version: 6.00 Build 0)  -->
<!DOCTYPE svg PUBLIC "-//W3C//DTD SVG 1.1//EN" "http://www.w3.org/Graphics/SVG/1.1/DTD/svg11.dtd" [
	<!ENTITY st0 "fill:#EEE8D2;">
	<!ENTITY st1 "fill:#DCD3BC;">
]>
<svg version="1.1" id="Layer_1" xmlns="http://www.w3.org/2000/svg" xmlns:xlink="http://www.w3.org/1999/xlink" x="0px" y="0px"
	 width="43px" height="102px" viewBox="0 0 43 102" style="enable-background:new 0 0 43 102;" xml:space="preserve">
<g id="neck">
	<polygon style="&st0;" points="14,53 25,53 33,54 41,51 43,56 37,60 29,62 12,62 	"/>
	<polygon style="&st0;" points="17,36 26,36 33,37 40,34 41,39 36,43 30,45 15,45 	"/>
	<polygon style="&st0;" points="19,18 28,18 34,19 41,16 43,21 38,25 31,27 16,27 	"/>
	<polygon style="&st0;" points="29,53 18,53 10,54 2,51 0,56 6,60 14,62 31,62 	"/>
	<polygon style="&st0;" points="26,36 17,36 10,37 3,34 2,39 7,43 13,45 28,45 	"/>
	<polygon style="&st0;" points="24,18 15,18 9,19 1,16 0,21 5,25 12,27 27,27 	"/>
	<polygon style="&st1;" points="30,99 33,85 33,76 31,66 29,44 29,9 28,3 21,0 21,102 	"/>
	<polygon style="&st1;" points="13,99 9,85 9,76 12,66 14,44 14,9 15,3 21,0 21,102 	"/>
</g>
</svg>
