<?xml version="1.0" encoding="utf-8"?>
<!-- Generator: Adobe Illustrator 21.0.2, SVG Export Plug-In . SVG Version: 6.00 Build 0)  -->
<!DOCTYPE svg PUBLIC "-//W3C//DTD SVG 1.1//EN" "http://www.w3.org/Graphics/SVG/1.1/DTD/svg11.dtd" [
	<!ENTITY st0 "fill:#EEE8D2;">
	<!ENTITY st1 "fill:#DCD3BC;">
]>
<svg version="1.1" id="Layer_1" xmlns="http://www.w3.org/2000/svg" xmlns:xlink="http://www.w3.org/1999/xlink" x="0px" y="0px"
	 width="112px" height="156px" viewBox="0 0 112 156" style="enable-background:new 0 0 112 156;" xml:space="preserve">
<g id="skull">
	<polygon style="&st0;" points="10,109 27,113 34,127 51,131 56,131 56,156 36,153 20,143 16,129 10,112 	"/>
	<polygon style="&st0;" points="102,109 85,113 78,127 61,131 56,131 56,156 76,153 92,143 96,129 102,112 	"/>
	<path style="&st1;" d="M56,81V0L20,7L5,32L0,76l6,30l22,6l8,9l21,2v-20h-8l-2-3V88l6-7H56z M46,80l-9,9H19l-4-10l2-12l7-5l14-3
		l9,10L46,80z"/>
	<path style="&st1;" d="M59,81l6,7v12l-2,3h-7v19l21-2l8-9l22-6l6-30l-5-43L92,7L56,0v81H59z M65,69l9-10l14,3l7,5l2,12l-5,10H74
		l-9-9V69z"/>
</g>
</svg>
