<?xml version="1.0" encoding="utf-8"?>
<!-- Generator: Adobe Illustrator 21.0.2, SVG Export Plug-In . SVG Version: 6.00 Build 0)  -->
<!DOCTYPE svg PUBLIC "-//W3C//DTD SVG 1.1//EN" "http://www.w3.org/Graphics/SVG/1.1/DTD/svg11.dtd" [
	<!ENTITY st0 "fill:#1982BC;">
	<!ENTITY st1 "fill:#25A9E0;">
]>
<svg version="1.1" id="Layer_1" xmlns="http://www.w3.org/2000/svg" xmlns:xlink="http://www.w3.org/1999/xlink" x="0px" y="0px"
	 width="2082px" height="1821px" viewBox="0 0 2082 1821" style="enable-background:new 0 0 2082 1821;" xml:space="preserve">
<title>Asset 19</title>
<g id="Layer_2">
	<g id="Layer_1-2">
		<polygon style="&st0;" points="104,35 166,26 312,65 458,26 520,35 606,15 729,50 857,8 937,30 994,21 1145,65 1282,32 1353,42 
			1465,6 1561,36 1645,16 1769,52 1894,16 1977,36 2078,0 2082,0 2082,1821 0,1821 0,0 4,0 		"/>
		<polygon style="&st1;" points="763,73 857,40 918,54 852,54 		"/>
		<polygon style="&st1;" points="1172,97 1278,65 1352,73 1419,64 1350,87 1279,80 		"/>
		<polygon style="&st1;" points="1635,46 1562,63 1512,49 1570,79 		"/>
		<polygon style="&st1;" points="410,59 456,44 548,59 469,53 		"/>
	</g>
</g>
</svg>
