<svg xmlns="http://www.w3.org/2000/svg" width="2082" height="1995" viewBox="0 0 2082 1995"><title>Asset 20</title><g id="Layer_2" data-name="Layer 2"><g id="Layer_1-2" data-name="Layer 1"><polygon points="1977 12 1915 9 1769 23 1623 9 1561 12 1475 5 1353 17 1225 3 1145 10 1088 7 937 23 799 11 729 15 617 2 520 13 437 6 312 18 188 6 104 13 3 0 0 0 0 1995 2082 1995 2082 0 2078 0 1977 12" fill="#134d91"/><polygon points="1023 30 1079 20 1108 25 1023 30" fill="#1982bc"/><polygon points="1431 29 1476 24 1493 29 1526 27 1491 34 1479 30 1431 29" fill="#1982bc"/><polygon points="361 31 398 22 415 25 361 31" fill="#1982bc"/></g></g></svg>