<?xml version="1.0" encoding="utf-8"?>
<!-- Generator: Adobe Illustrator 21.0.2, SVG Export Plug-In . SVG Version: 6.00 Build 0)  -->
<!DOCTYPE svg PUBLIC "-//W3C//DTD SVG 1.1//EN" "http://www.w3.org/Graphics/SVG/1.1/DTD/svg11.dtd" [
	<!ENTITY st0 "fill:#F06156;">
]>
<svg version="1.1" id="Layer_1" xmlns="http://www.w3.org/2000/svg" xmlns:xlink="http://www.w3.org/1999/xlink" x="0px" y="0px"
	 width="157px" height="163px" viewBox="0 0 157 163" style="enable-background:new 0 0 157 163;" xml:space="preserve">
<title>Asset 4</title>
<g>
	<path style="&st0;" d="M157,63l-3-18l-7-4l-13,7l15-12V21l-9-8l-13,4l-7,7l-6,8v1l-4,2l6-5l4-7v-6l-9-17L51,11l-21,2l-3,5l2,10
		l11,7l9,2h-8l-23-7L6,44L0,68l5,31l9,5h7l7-6l3-10h17l6-3l-4,4l-16,2l-6,12l2,9l11,7l7-2l8-9l7-5l12-7l-8,6v2l4,2l13,4l3-9l7-3
		l-4,3h8l-10,3l-3,7l6,3l6,6l9,8h7l-7,2v-1l-12-10l-17-10l-15-3l-9,7l-4,8l8,3h9l10,9l-9-6H56l-10-5h-4l-3,13l10,9l32,7l-33-5
		l-11-12l3-13l-6-5l-6-2h-6l-6,10l4,4h6l5-2l-2,3l-5,3l-3,14l5,8h9v-6l5,8l15,7h8l22,2l12-6v-8l-6-5l-6-16l-14-13l16,10l4,14l16,8
		l9-5l7-12l-2-8l-8-2l-8-7V98l-12-9l-6,3l-9-3l-10-2l-3,7l-14,6l-6,6v-4l-6-3l8,3l17-8l5-8l-7-8l-20-3h-9V54H22l-2,7v19l2,10l-3-4
		l-2-17l4-16l-6-7l6,5h11l14-5l-12,7v21h9l18,4l8,8l18,5l5-2l6-25l-7-8l-17-7l-2-5l2,3l19,6l7,11l-5,24l13,9l-2,16l8,8h12l5-6v-5
		l4,3l13-6l9-16l-3-11L157,63z M79,69l7-6l-6,8l3,6L69,63l-15-5l-5,4l4-8l8-9v-7l-7-7l8,7v6l-7,9v4l12,3L79,69z M143,57v20l-4,3
		l-5,15l3-13h-4l-7-3l-3,3v9l3,9l-5-2l-6,2l6-5V82l6-4V65l-6-4l-9,9l-5,10l2,7l-4-8l12-18l-2-3v-6l-5-6l-17-9l-18-4l17,2l9-7l6-9
		l-5,11l-7,5l12,8l10,3l10-15l13-3l-9,4l-15,16v5l2,5l8,5l4,17h6l5-4V58l6-7L143,57z"/>
</g>
</svg>
