<?xml version="1.0" encoding="utf-8"?>
<!-- Generator: Adobe Illustrator 21.0.2, SVG Export Plug-In . SVG Version: 6.00 Build 0)  -->
<!DOCTYPE svg PUBLIC "-//W3C//DTD SVG 1.1//EN" "http://www.w3.org/Graphics/SVG/1.1/DTD/svg11.dtd" [
	<!ENTITY st0 "fill:#F49B91;">
	<!ENTITY st1 "fill:#F06156;">
]>
<svg version="1.1" id="Layer_1" xmlns="http://www.w3.org/2000/svg" xmlns:xlink="http://www.w3.org/1999/xlink" x="0px" y="0px"
	 width="212px" height="263px" viewBox="0 0 212 263" style="enable-background:new 0 0 212 263;" xml:space="preserve">
<path style="&st0;" d="M206,82l6-15l-6-23l3-15l-4-21l-19-8l-23,8l-14,12l-12-2l-22,8l-4-2l-23,4L68,14l-18,3H35L20,31l-7,20L6,66
	v21l-6,16l3,20l-2,11l4,9l5,27l17,9l5,14l8,6l3-7l-6-6v-6l7-8l10-23l-9-18l-9-6l-4-29l3-15l5-13l2-5l2-4l3-8l10,6h12l14,6h9l9-4h6
	l12-8l5,2l12-4l9-6h3v3l-4,7l-6,5l4-2v2l13-15l13-4l9,8v15l-13,12l13-7l7,4l3,18l-4,16l3,11l-9,16l-10,8v11l-7,8v13l-11,5l-22,2v4
	l-12,6h-15l-8,22l5,16l-3,13l7,23l7,2l7-18l-3-18l4-6l-3-18l17,9h22l30-16l5-12l14-20l3-19l3-6v-17l3-19L206,82z"/>
<polygon style="&st1;" points="197,120 183,150 180,168 170,179 142,200 128,196 116,194 131,194 142,198 161,187 168,175 177,168 
	182,144 194,123 193,109 197,85 192,67 193,42 178,29 160,34 148,35 121,41 112,40 84,42 48,37 35,43 26,61 23,86 25,98 23,117 
	25,122 21,139 26,159 20,140 23,123 20,118 25,96 20,87 26,66 31,43 46,34 81,42 114,38 123,39 149,32 166,33 177,26 196,40 196,66 
	197,82 196,110 "/>
</svg>
