<?xml version="1.0" encoding="utf-8"?>
<!-- Generator: Adobe Illustrator 21.0.2, SVG Export Plug-In . SVG Version: 6.00 Build 0)  -->
<!DOCTYPE svg PUBLIC "-//W3C//DTD SVG 1.1//EN" "http://www.w3.org/Graphics/SVG/1.1/DTD/svg11.dtd" [
	<!ENTITY st0 "fill:#F06156;">
	<!ENTITY st1 "fill:#F49B91;">
]>
<svg version="1.1" id="Layer_1" xmlns="http://www.w3.org/2000/svg" xmlns:xlink="http://www.w3.org/1999/xlink" x="0px" y="0px"
	 width="137px" height="111px" viewBox="0 0 137 111" style="enable-background:new 0 0 137 111;" xml:space="preserve">
<title>Asset 7</title>
<g id="Layer_2">
	<g id="Layer_1-2">
		<polygon id="stomach" style="&st0;" points="67,10 60,40 38,50 18,54 5,70 0,91 4,109 13,111 19,104 17,90 25,80 41,85 86,86 
			118,71 135,49 137,21 120,0 83,2 		"/>
		<polygon style="&st1;" points="92,17 77,37 59,52 26,60 22,65 24,70 44,77 83,78 123,57 129,25 111,11 		"/>
	</g>
</g>
</svg>
